HIERARCHY
ROOT Hips
{
	OFFSET 0.00 0.00 0.00
	CHANNELS 6 Xposition Yposition Zposition Xrotation Yrotation Zrotation
	JOINT LeftUpLeg
	{
		OFFSET 2.83210 0.00000 0.00000
		CHANNELS 3 Xrotation Yrotation Zrotation
		JOINT LeftLeg
		{
			OFFSET 0.00000 -16.27150 0.00000
			CHANNELS 3 Xrotation Yrotation Zrotation
			JOINT LeftFoot
			{
				OFFSET 0.00000 -14.95190 0.00000
				CHANNELS 3 Xrotation Yrotation Zrotation
				JOINT LeftToeBase
				{
					OFFSET 0.00000 -1.07991 4.03030
					CHANNELS 3 Xrotation Yrotation Zrotation
					End Site
					{
						OFFSET 0.00000 0.00000 2.95275
					}
				}
			}
		}
	}
	JOINT RightUpLeg
	{
		OFFSET -2.83210 0.00000 0.00000
		CHANNELS 3 Xrotation Yrotation Zrotation
		JOINT RightLeg
		{
			OFFSET 0.00000 -16.27150 0.00000
			CHANNELS 3 Xrotation Yrotation Zrotation
			JOINT RightFoot
			{
				OFFSET 0.00000 -14.95190 0.00000
				CHANNELS 3 Xrotation Yrotation Zrotation
				JOINT RightToeBase
				{
					OFFSET 0.00000 -1.07991 4.03030
					CHANNELS 3 Xrotation Yrotation Zrotation
					End Site
					{
						OFFSET 0.00000 0.00000 2.95275
					}
				}
			}
		}
	}
	JOINT Spine
	{
		OFFSET 0.00000 0.03937 0.00000
		CHANNELS 3 Xrotation Yrotation Zrotation
		JOINT Spine1
		{
			OFFSET 0.00000 8.01054 0.00000
			CHANNELS 3 Xrotation Yrotation Zrotation
			JOINT Neck
			{
				OFFSET 0.00000 8.21888 0.00000
				CHANNELS 3 Xrotation Yrotation Zrotation
				JOINT Head
				{
					OFFSET 0.00000 3.25664 0.00000
					CHANNELS 3 Xrotation Yrotation Zrotation
					End Site
					{
						OFFSET 0.00000 4.52755 0.00000
					}
				}
			}
			JOINT LeftShoulder
			{
				OFFSET 0.00000 8.21888 0.00000
				CHANNELS 3 Xrotation Yrotation Zrotation
				JOINT LeftArm
				{
					OFFSET 6.52904 -0.00002 0.00000
					CHANNELS 3 Xrotation Yrotation Zrotation
					JOINT LeftForeArm
					{
						OFFSET 10.44840 -0.00004 0.00000
						CHANNELS 3 Xrotation Yrotation Zrotation
						JOINT LeftHand
						{
							OFFSET 8.94727 -0.00003 0.00000
							CHANNELS 3 Xrotation Yrotation Zrotation
							JOINT LeftHandThumb
							{
								OFFSET 0.00000 0.00000 0.00000
								CHANNELS 3 Xrotation Yrotation Zrotation
								End Site
								{
									OFFSET 0.00000 0.00000 3.93700
								}
							}
							JOINT L_Wrist_End
							{
								OFFSET 3.93700 -0.00001 0.00000
								CHANNELS 3 Xrotation Yrotation Zrotation
							}
						}
					}
				}
			}
			JOINT RightShoulder
			{
				OFFSET 0.00000 8.21888 0.00000
				CHANNELS 3 Xrotation Yrotation Zrotation
				JOINT RightArm
				{
					OFFSET -6.52904 -0.00002 0.00000
					CHANNELS 3 Xrotation Yrotation Zrotation
					JOINT RightForeArm
					{
						OFFSET -10.44840 -0.00004 0.00000
						CHANNELS 3 Xrotation Yrotation Zrotation
						JOINT RightHand
						{
							OFFSET -8.94727 -0.00003 0.00000
							CHANNELS 3 Xrotation Yrotation Zrotation
							JOINT RightHandThumb
							{
								OFFSET 0.00000 0.00000 0.00000
								CHANNELS 3 Xrotation Yrotation Zrotation
								End Site
								{
									OFFSET 0.00000 0.00000 3.93700
								}
							}
							JOINT R_Wrist_End
							{
								OFFSET -5.39369 -0.00002 0.00000
								CHANNELS 3 Xrotation Yrotation Zrotation
							}
						}
					}
				}
			}
		}
	}
}
MOTION
Frames: 6
Frame Time: 0.008333
 68.4205 31.6357 -6.1067 73.9644 -79.7305 83.6188 -25.4361 -4.5009 -13.3589 -0.3873 0.0000 0.0000 12.4817 21.4519 -8.9626 11.7602 0.0000 0.0000 2.8773 -18.9841 -11.8283 34.5059 -0.0000 0.0000 7.5338 1.0529 33.1275 19.5196 -0.0000 0.0000 -11.5149 6.3904 -11.3133 11.3872 -3.1981 -0.4150 -22.4297 13.8954 -7.6124 -13.6190 -43.3832 -3.9715 17.5276 18.5664 -4.0559 -3.3504 -18.6446 -74.9171 -0.0000 -3.5861 -0.0000 -15.5927 -6.5011 -24.5553 -0.0000 0.0000 -0.0000 -0.0000 0.0000 -0.0000 15.4599 -10.0792 1.5515 -41.3571 49.4204 83.6600 -0.0001 32.7177 0.0000 -13.1697 2.0442 -2.0563 0.0000 0.0000 0.0000 0.0000 0.0000 0.0000
 67.9015 31.7173 -5.9657 73.9174 -79.8510 84.5897 -24.5581 -4.8189 -14.5823 -0.4963 -0.0000 -0.0000 11.8784 21.8345 -8.1948 12.5447 -0.0000 0.0000 0.6494 -19.3690 -14.2274 38.1109 -0.0000 0.0000 11.3925 1.4693 31.9137 19.5196 -0.0000 0.0000 -11.3784 6.3458 -11.4638 10.9643 -3.3916 -1.3084 -22.3509 13.9981 -7.5981 -13.2344 -43.3441 -3.8025 17.4081 18.5735 -3.7477 -3.8644 -18.7500 -75.3178 -0.0000 -3.6797 -0.0000 -15.5133 -6.5708 -24.6119 -0.0000 0.0000 -0.0000 -0.0000 0.0000 -0.0000 15.4634 -10.3377 1.4575 -39.7120 49.1103 83.4433 -0.0001 32.6770 0.0000 -12.7953 1.3952 -1.8813 -0.0000 -0.0000 -0.0000 -0.0000 -0.0000 -0.0000
 67.4131 31.7964 -5.8542 73.0885 -79.8340 84.5331 -23.9352 -5.3327 -15.5729 -0.4276 -0.0000 0.0000 11.1576 22.3081 -7.6943 13.0797 -0.0000 0.0000 -1.6083 -19.3533 -16.1407 41.7396 0.0000 0.0000 15.1515 1.2215 31.4931 19.5196 0.0000 0.0000 -11.1190 6.1213 -11.7168 10.2992 -3.6120 -1.7475 -22.3742 14.1277 -7.6422 -12.7627 -43.2112 -3.7357 17.4776 18.5265 -3.6363 -4.5279 -18.8763 -75.6883 -0.0000 -3.9182 -0.0000 -15.5241 -6.5099 -24.6140 -0.0000 0.0000 0.0000 -0.0000 0.0000 0.0000 15.5012 -10.6442 1.1847 -38.1220 48.7849 83.2531 -0.0001 32.6121 0.0000 -12.2098 0.6133 -1.7150 -0.0000 -0.0000 -0.0000 -0.0000 -0.0000 -0.0000
 66.9294 31.8786 -5.7532 72.0078 -79.8511 84.0932 -23.2324 -6.1119 -16.4343 -0.5759 0.0000 0.0000 10.5801 22.9804 -7.3141 13.3211 0.0000 -0.0000 -3.8139 -19.1010 -17.7990 45.2596 0.0000 0.0000 18.8454 0.7820 31.9138 19.5196 -0.0000 -0.0000 -10.8728 5.9350 -11.8299 9.7761 -3.8304 -2.2688 -22.4645 14.3228 -7.4738 -12.5177 -43.2100 -3.9922 17.4277 18.4442 -3.3914 -5.2623 -19.0370 -76.0716 -0.0000 -4.2010 -0.0000 -15.5469 -6.5209 -24.6336 0.0000 0.0000 -0.0000 0.0000 0.0000 -0.0000 15.5316 -11.0281 1.0898 -36.4500 48.6692 82.8432 -0.0001 32.4788 0.0000 -11.7607 0.0409 -1.4538 -0.0000 0.0000 -0.0000 -0.0000 0.0000 -0.0000
 66.4512 31.9600 -5.6743 70.8223 -79.8718 83.3492 -22.3670 -6.6825 -17.0560 -0.8456 -0.0000 0.0000 10.0246 23.3341 -7.1304 13.5371 0.0000 -0.0000 -5.8199 -18.4657 -19.0331 48.5313 -0.0000 0.0000 22.3631 -0.5594 34.1154 19.5196 -0.0000 -0.0000 -10.7121 5.7542 -11.8630 9.4214 -4.0458 -2.6762 -22.3763 14.5399 -7.1545 -12.8216 -43.1901 -4.6269 17.2683 18.2658 -3.0573 -6.0352 -19.0588 -76.4876 -0.0000 -4.5607 -0.0000 -15.6064 -6.5339 -24.6632 0.0000 -0.0000 -0.0000 0.0000 -0.0000 -0.0000 15.5091 -11.4203 0.9734 -34.9143 48.4001 82.5387 -0.0001 32.1724 0.0000 -11.0301 -0.4950 -1.1289 -0.0000 0.0000 0.0000 -0.0000 0.0000 0.0000
 66.0029 32.0331 -5.6211 70.0372 -79.8456 82.7099 -21.4747 -6.5825 -17.3224 -0.9066 -0.0000 0.0000 9.3211 22.9268 -6.8185 14.7160 -0.0000 0.0000 -7.8449 -17.6166 -19.7784 51.7950 0.0000 -0.0000 25.7487 -2.6611 36.2491 19.5196 -0.0000 -0.0000 -10.4784 5.5058 -11.9100 8.9794 -4.2199 -2.6576 -22.1906 14.7477 -6.8639 -13.4087 -43.0575 -5.4172 17.1776 18.1333 -2.8739 -6.8996 -19.4836 -76.9493 -0.0000 -4.8249 -0.0000 -15.7518 -6.7594 -24.4752 -0.0000 0.0000 -0.0000 -0.0000 0.0000 -0.0000 15.5315 -11.7316 0.7193 -33.3864 48.0634 82.1194 -0.0001 31.9223 0.0000 -10.2342 -1.0985 -0.9220 0.0000 0.0000 -0.0000 0.0000 0.0000 -0.0000
